<?xml version="1.0" encoding="utf-8"?>
<!-- Svg Vector Icons : http://www.onlinewebfonts.com/icon -->
<!DOCTYPE svg PUBLIC "-//W3C//DTD SVG 1.1//EN" "http://www.w3.org/Graphics/SVG/1.1/DTD/svg11.dtd">
<svg version="1.1" xmlns="http://www.w3.org/2000/svg" xmlns:xlink="http://www.w3.org/1999/xlink" x="0px" y="0px" viewBox="0 0 1000 1000" enable-background="new 0 0 1000 1000" xml:space="preserve">
<metadata> Svg Vector Icons : http://www.onlinewebfonts.com/icon </metadata>
<g><g transform="translate(0.000000,512.000000) scale(0.100000,-0.100000)"><path d="M6385.8,5013.8c-403.9-82.7-784.8-342.4-1125.2-769.4c-302-377-600.1-961.7-780.9-1529.2c-34.6-111.6-65.4-203.9-67.3-207.7c-1.9-3.9-61.5,11.5-132.7,32.7c-152,48.1-198.1,50-332.8,15.4c-202-53.9-317.4-177-407.8-432.8l-51.9-148.1l-180.8-15.4c-938.7-82.7-1683-428.9-2279.3-1057.9c-238.5-252-409.7-496.3-563.6-811.7c-554-1121.4-471.3-2371.6,225-3414.2c180.8-271.2,559.7-659.7,830.9-852.1c219.3-155.8,652.1-373.2,906-455.9c696.3-225,1450.3-223.1,2142.7,9.6c230.8,76.9,669.4,300.1,875.2,446.3c234.7,167.3,627.1,559.7,794.4,794.4c163.5,232.7,375.1,657.9,465.5,938.7c298.1,938.7,169.3,1969.6-352,2808.3c-186.6,300.1-455.9,609.7-707.8,813.6l-117.3,96.2l53.9,173.1c63.5,194.3,67.3,259.7,28.8,390.5c-63.5,209.6-182.7,319.3-444.3,407.8l-165.4,55.8l11.5,67.3c23.1,125,184.7,546.3,307.8,804c284.7,594.4,607.8,975.2,988.7,1163.7c151.9,75,173.1,80.8,327,80.8c146.2,0,180.8-7.7,298.1-63.5c342.4-161.6,642.4-623.2,848.3-1302.2C7972.7,2417.1,8090,1465,8074.6,657.1l-5.8-355.8l-125,180.8c-67.3,100-125,173.1-128.9,163.5c-1.9-9.6,36.6-223.1,88.5-473.2c51.9-252,86.6-457.8,76.9-457.8c-15.4,0-881,240.4-940.6,261.6c-38.5,13.5-48.1,21.2,380.8-328.9l373.2-302l-444.3-205.8l-444.3-203.9l479-9.6l478.9-9.6l-200-432.8c-109.6-238.5-198.1-440.5-200-448.1c0-7.7,161.6,126.9,359.7,302c228.9,202,365.5,309.7,373.1,294.3c5.8-13.5,67.3-228.9,134.6-480.9c86.6-325.1,127-444.3,136.6-413.6c5.8,25,40.4,240.4,75,480.9c42.3,296.2,69.3,432.8,82.7,425.1c11.5-7.7,186.6-130.8,386.6-275.1c202-144.3,378.9-269.3,394.3-278.9c30.8-19.2,0,36.6-282.8,498.2c-107.7,178.9-194.3,328.9-192.4,332.8c3.9,1.9,221.2,23.1,484.7,44.2c261.6,21.2,480.9,40.4,484.7,44.3c1.9,3.8-186.6,73.1-423.2,155.8c-236.6,82.7-440.5,155.8-454,165.4c-19.2,11.6,65.4,109.7,317.4,367.4c188.5,192.4,330.8,346.2,315.5,340.5C9640.3,32,9444.1-43,9221-129.6c-223.1-84.6-415.5-155.8-428.9-155.8c-13.5,0-17.3,17.3-13.5,44.3c17.3,76.9,73.1,875.2,65.4,902.1c-5.8,13.5-38.5-30.8-75-100l-65.4-125L8692,859.1C8638.2,2653.7,8291.9,3902,7663,4561.8C7295.6,4946.5,6841.6,5106.1,6385.8,5013.8z M3760.3,1332.3l96.2-11.5l-202-34.6C2427.3,1080.3,1461.7,201.3,1153.9-989.4c-82.7-319.3-101.9-507.8-90.4-890.6c13.5-471.3,88.5-788.6,290.4-1227.2l88.5-188.5l-76.9,86.6c-271.2,303.9-496.2,765.6-600.1,1233c-57.7,263.5-63.5,798.2-9.6,1063.7C996.2,276.3,1948.3,1176.5,3125.5,1328.4C3287.1,1347.6,3627.5,1351.5,3760.3,1332.3z"/></g></g>
</svg>